HIERARCHY
ROOT Hips
{
	OFFSET -3.958830 18.904000 13.208200
	CHANNELS 6 Xposition Yposition Zposition Zrotation Yrotation Xrotation 
	JOINT LHipJoint
	{
		OFFSET 0.000000 0.000000 0.000000
		CHANNELS 3 Zrotation Yrotation Xrotation
		JOINT LeftUpLeg
		{
			OFFSET 1.800000 -1.400000 0.085000
			CHANNELS 3 Zrotation Yrotation Xrotation
			JOINT LeftLeg
			{
				OFFSET 2.215000 -6.000000 0.000000
				CHANNELS 3 Zrotation Yrotation Xrotation
				JOINT LeftFoot
				{
					OFFSET 2.500000 -6.900000 0.000000
					CHANNELS 3 Zrotation Yrotation Xrotation
					JOINT LeftToeBase
					{
						OFFSET 0.200000 -0.500000 1.950000
						CHANNELS 3 Zrotation Yrotation Xrotation
						End Site
						{
							OFFSET 0.000000 0.000000 0.000000
						}
					}
				}
			}
		}
	}
	JOINT RHipJoint
	{
		OFFSET 0.000000 0.000000 0.000000
		CHANNELS 3 Zrotation Yrotation Xrotation
		JOINT RightUpLeg
		{
			OFFSET -1.800000 -1.400000 0.085000
			CHANNELS 3 Zrotation Yrotation Xrotation
			JOINT RightLeg
			{
				OFFSET -2.215000 -6.000000 0.000000
				CHANNELS 3 Zrotation Yrotation Xrotation
				JOINT RightFoot
				{
					OFFSET -2.500000 -6.900000 0.000000
					CHANNELS 3 Zrotation Yrotation Xrotation
					JOINT RightToeBase
					{
						OFFSET -0.200000 -0.500000 1.950000
						CHANNELS 3 Zrotation Yrotation Xrotation
						End Site
						{
							OFFSET 0.000000 0.000000 0.000000
						}
					}
				}
			}
		}
	}
	JOINT LowerBack
	{
		OFFSET 0.000000 0.000000 0.000000
		CHANNELS 3 Zrotation Yrotation Xrotation
		JOINT Spine
		{
			OFFSET -0.087000 1.940000 -0.288900
			CHANNELS 3 Zrotation Yrotation Xrotation
			JOINT Spine1
			{
				OFFSET 0.000000 1.950000 0.060000
				CHANNELS 3 Zrotation Yrotation Xrotation
				JOINT Neck
				{
					OFFSET 0.000000 0.000000 0.000000
					CHANNELS 3 Zrotation Yrotation Xrotation
					JOINT Neck1
					{
						OFFSET 0.000000 1.600000 0.340000
						CHANNELS 3 Zrotation Yrotation Xrotation
						JOINT Head
						{
							OFFSET 0.000000 1.667000 -0.240000
							CHANNELS 3 Zrotation Yrotation Xrotation
							End Site
							{
								OFFSET 0.000000 0.000000 0.000000
							}
						}
					}
				}
				JOINT LeftShoulder
				{
					OFFSET 0.000000 0.000000 0.000000
					CHANNELS 3 Zrotation Yrotation Xrotation
					JOINT LeftArm
					{
						OFFSET 2.700000 1.550000 -0.730000
						CHANNELS 3 Zrotation Yrotation Xrotation
						JOINT LeftForeArm
						{
							OFFSET 5.450000 0.000000 0.000000
							CHANNELS 3 Zrotation Yrotation Xrotation
							JOINT LeftHand
							{
								OFFSET 3.450000 0.000000 0.000000
								CHANNELS 3 Zrotation Yrotation Xrotation
								JOINT LeftHandIndex1
								{
									OFFSET 0.750000 0.000000 0.000000
									CHANNELS 3 Zrotation Yrotation Xrotation
									End Site
									{
										OFFSET 0.000000 0.000000 0.000000
									}
								}
							}
						}
					}
				}
				JOINT RightShoulder
				{
					OFFSET 0.000000 0.000000 0.000000
					CHANNELS 3 Zrotation Yrotation Xrotation
					JOINT RightArm
					{
						OFFSET -2.700000 1.550000 -0.730000
						CHANNELS 3 Zrotation Yrotation Xrotation
						JOINT RightForeArm
						{
							OFFSET -5.450000 0.000000 0.000000
							CHANNELS 3 Zrotation Yrotation Xrotation
							JOINT RightHand
							{
								OFFSET -3.450000 0.000000 0.000000
								CHANNELS 3 Zrotation Yrotation Xrotation
								JOINT RightHandIndex1
								{
									OFFSET -0.750000 0.000000 0.000000
									CHANNELS 3 Zrotation Yrotation Xrotation
									End Site
									{
										OFFSET 0.000000 0.000000 0.000000
									}
								}
							}
						}
					}
				}
			}
		}
	}
}
MOTION
Frames: 7
Frame Time: 0.016667
0.622070 15.960660 -0.893770 3.705121 -23.314198 -3.140150 -15.355066 11.421981 4.213441 24.125908 -1.178968 -29.462877 -12.697677 21.511120 52.293051 0.852834 11.997033 0.466118 0.887300 0.460920 0.979290 18.535230 -8.543841 4.266283 -31.188776 6.267303 -45.551506 6.260355 -15.970247 51.918655 -1.281302 -8.707507 1.437592 0.228490 -0.037290 0.304860 -3.943014 -1.663443 -9.125699 43.711525 -7.902489 30.183888 1.008754 1.827095 7.494788 2.919037 3.450935 -15.518869 6.965785 -3.752772 26.177824 -13.680990 7.583130 -21.199840 -5.048627 -21.827613 9.088760 4.258967 14.552143 -7.672203 148.892026 -34.253485 -111.388859 -3.132541 3.748661 0.730670 0.061140 0.239910 0.317330 -2.182237 23.215462 7.387027 28.853020 25.974412 2.342611 -10.480666 11.423977 -1.483002 2.188194 -1.470079 -0.140960 0.168350 -0.439480 -0.412260 
0.615580 15.979740 -0.895190 3.817976 -23.346867 -4.098124 -15.336630 11.633389 4.060190 23.330668 -1.058304 -28.695937 -11.265521 20.800158 52.769536 0.817376 11.847650 0.505265 0.889940 0.460050 0.971750 18.514818 -8.652362 4.233874 -31.388753 6.515228 -44.468377 6.740954 -16.004931 51.744695 -1.288664 -8.697463 1.432466 0.224200 -0.048740 0.300970 -3.901881 -1.777608 -9.042162 43.888087 -7.896169 30.871485 0.624153 2.127607 7.281740 2.912761 3.250554 -15.499248 6.588962 -3.928676 26.095835 -12.867480 6.998080 -22.281140 -4.970046 -21.642052 8.911134 4.838230 14.664272 -7.737858 148.541404 -33.968771 -110.203305 -3.103171 3.755559 0.755510 0.034910 0.248010 0.313580 -2.243694 23.273787 7.566747 28.728798 25.547398 1.957087 -10.693473 12.278612 -1.536131 2.170381 -1.464960 -0.141350 0.168610 -0.433840 -0.412650 
0.609030 15.995040 -0.894720 3.814182 -23.596724 -4.575303 -15.316669 11.765277 3.918111 22.723896 -0.816614 -28.209068 -9.930993 20.206746 53.143444 0.742027 11.747415 0.530655 0.873940 0.434080 0.952530 18.511927 -8.721972 4.253412 -31.715174 6.830943 -43.841620 7.588319 -16.205838 51.385504 -1.284535 -8.703697 1.436802 0.227510 -0.031240 0.282440 -3.910500 -1.793682 -8.975682 43.931185 -7.572909 31.038229 0.866767 2.366529 7.214516 2.856962 3.003206 -15.234072 6.148845 -3.811122 26.033729 -12.129260 6.649310 -23.261030 -5.013302 -21.137912 8.702143 4.687424 14.207352 -7.625920 148.396305 -33.367996 -108.735805 -3.122605 3.697227 0.790390 0.029640 0.233260 0.305980 -2.010842 22.954167 7.380745 28.115123 25.528893 1.722698 -10.427548 13.295057 -1.528015 2.124497 -1.421812 -0.179240 0.204900 -0.404770 -0.428100 
0.605480 16.006040 -0.893740 3.831809 -23.512599 -5.046808 -15.283671 11.866776 3.778504 22.060704 -0.652391 -27.791601 -8.631406 19.546082 53.407944 0.677479 11.632338 0.579603 0.853940 0.404610 0.946840 18.520079 -8.832125 4.266901 -32.185338 6.965207 -43.118892 8.428557 -16.442341 50.931799 -1.276981 -8.708808 1.451098 0.225720 0.002430 0.261100 -3.950105 -1.710226 -8.909985 43.998021 -7.150976 30.712579 1.178531 2.468882 7.459743 2.805058 2.949373 -15.138128 6.077193 -3.937251 26.017591 -11.934830 6.339920 -23.671190 -4.964681 -20.970734 8.643209 4.274128 13.564932 -7.568793 148.165532 -32.585871 -107.012435 -3.155658 3.620202 0.809170 0.038800 0.216350 0.303770 -1.907577 22.818003 7.280669 27.841083 25.582437 1.478130 -10.685345 14.057531 -1.611459 2.085705 -1.384055 -0.218000 0.260330 -0.382100 -0.438050 
0.598230 16.014570 -0.891360 4.012038 -23.149397 -5.685244 -15.257653 12.005276 3.654074 21.335313 -0.584092 -27.370343 -7.322100 18.828605 53.713932 0.636493 11.507171 0.629338 0.833270 0.384670 0.921780 18.514816 -8.960421 4.233040 -32.587386 6.911699 -42.071948 9.006143 -16.516923 50.336663 -1.262372 -8.684382 1.464252 0.218740 0.036420 0.264940 -3.947198 -1.700470 -8.845395 43.467751 -6.655877 30.421691 1.960959 2.440887 7.553516 2.655852 3.034769 -15.119738 6.246538 -4.023323 25.985288 -11.753990 6.171370 -23.644690 -5.209734 -20.954992 8.705413 3.721681 13.167138 -7.474395 148.521709 -31.274346 -105.711887 -3.186575 3.586460 0.810920 0.056040 0.205900 0.307990 -1.348398 22.732535 7.128758 27.320719 25.554882 1.116810 -10.984174 14.987809 -1.712652 2.053311 -1.368056 -0.231370 0.286380 -0.359750 -0.431910 
0.587240 16.029160 -0.888220 4.081748 -22.450209 -6.627607 -15.213781 12.156325 3.512360 20.691091 -0.528929 -26.575276 -6.025220 18.026214 53.845878 0.582336 11.329707 0.678061 0.844310 0.394560 0.933670 18.515865 -9.167314 4.153465 -32.772296 6.787952 -40.498599 9.526861 -16.529261 49.676912 -1.254642 -8.635111 1.468363 0.227800 0.032170 0.271430 -3.971822 -1.604054 -8.747967 43.121340 -6.165007 29.863066 2.698271 2.266848 8.056150 2.608236 3.263701 -15.066821 6.659064 -4.343818 26.038840 -11.780910 5.979680 -24.295500 -5.366073 -21.038550 8.829458 2.700567 11.922904 -7.380933 148.974492 -29.510185 -104.034550 -3.205366 3.548274 0.820160 0.053240 0.214160 0.303470 -1.048758 22.569262 6.925393 27.426429 25.723680 0.851322 -11.688705 15.421707 -1.880252 2.035703 -1.369747 -0.230140 0.295810 -0.353610 -0.438080 
0.580450 16.045770 -0.881150 3.949149 -21.521635 -7.923089 -15.157794 12.326570 3.368313 20.391719 -0.395983 -25.313830 -4.885332 17.266002 53.762681 0.529113 11.121841 0.716379 0.874260 0.430880 0.961630 18.516772 -9.446674 4.015291 -32.714253 6.637304 -38.343135 9.766756 -16.424782 49.132658 -1.243351 -8.591243 1.447840 0.251360 -0.006210 0.282420 -4.007428 -1.451041 -8.623196 43.272371 -5.934075 29.142927 2.793770 1.935538 8.934953 2.746010 3.532717 -15.240540 7.192181 -4.681345 25.990885 -12.278320 5.956100 -24.455370 -5.589911 -21.534868 9.046077 2.386449 10.876620 -7.199622 149.763318 -27.928870 -103.601676 -3.200900 3.563153 0.813330 0.044730 0.225070 0.285600 -1.054605 22.800562 7.021380 27.793724 25.725091 0.666700 -12.377688 15.495758 -2.069238 2.031307 -1.414935 -0.208500 0.265020 -0.359680 -0.449160 
